HIERARCHY
ROOT root
{
	OFFSET 0.000000 0.000000 0.000000
	CHANNELS 6 Xposition Yposition Zposition Zrotation Yrotation Xrotation
	JOINT lhip
	{
		OFFSET 0.058581 -0.082280 -0.017664
		CHANNELS 3 Zrotation Yrotation Xrotation
		JOINT lknee
		{
			OFFSET 0.043451 -0.386469 0.008037
			CHANNELS 3 Zrotation Yrotation Xrotation
			JOINT lankle
			{
				OFFSET -0.014790 -0.426874 -0.037428
				CHANNELS 3 Zrotation Yrotation Xrotation
				JOINT ltoe
				{
					OFFSET 0.041054 -0.060286 0.122042
					CHANNELS 3 Zrotation Yrotation Xrotation
					End Site
					{
						OFFSET 0.000000 0.000000 0.000000
					}
				}
			}
		}
	}
	JOINT rhip
	{
		OFFSET -0.060310 -0.090513 -0.013543
		CHANNELS 3 Zrotation Yrotation Xrotation
		JOINT rknee
		{
			OFFSET -0.043257 -0.383688 -0.004843
			CHANNELS 3 Zrotation Yrotation Xrotation
			JOINT rankle
			{
				OFFSET 0.019056 -0.420046 -0.034562
				CHANNELS 3 Zrotation Yrotation Xrotation
				JOINT rtoe
				{
					OFFSET -0.034840 -0.062106 0.130323
					CHANNELS 3 Zrotation Yrotation Xrotation
					End Site
					{
						OFFSET 0.000000 0.000000 0.000000
					}
				}
			}
		}
	}
	JOINT lowerback
	{
		OFFSET 0.004439 0.124404 -0.038385
		CHANNELS 3 Zrotation Yrotation Xrotation
		JOINT upperback
		{
			OFFSET 0.004488 0.137956 0.026820
			CHANNELS 3 Zrotation Yrotation Xrotation
			JOINT chest
			{
				OFFSET -0.002265 0.056032 0.002855
				CHANNELS 3 Zrotation Yrotation Xrotation
				JOINT lowerneck
				{
					OFFSET -0.013390 0.211636 -0.033468
					CHANNELS 3 Zrotation Yrotation Xrotation
					JOINT upperneck
					{
						OFFSET 0.010113 0.088937 0.050410
						CHANNELS 3 Zrotation Yrotation Xrotation
						End Site
						{
							OFFSET 0.000000 0.000000 0.000000
						}
					}
				}
				JOINT lclavicle
				{
					OFFSET 0.071702 0.114000 -0.018898
					CHANNELS 3 Zrotation Yrotation Xrotation
					JOINT lshoulder
					{
						OFFSET 0.122921 0.045205 -0.019046
						CHANNELS 3 Zrotation Yrotation Xrotation
						JOINT lelbow
						{
							OFFSET 0.255332 -0.015649 -0.022946
							CHANNELS 3 Zrotation Yrotation Xrotation
							JOINT lwrist
							{
								OFFSET 0.265709 0.012698 -0.007375
								CHANNELS 3 Zrotation Yrotation Xrotation
								End Site
								{
									OFFSET 0.000000 0.000000 0.000000
								}
							}
						}
					}
				}
				JOINT rclavicle
				{
					OFFSET -0.082954 0.112472 -0.023707
					CHANNELS 3 Zrotation Yrotation Xrotation
					JOINT rshoulder
					{
						OFFSET -0.113228 0.046853 -0.008472
						CHANNELS 3 Zrotation Yrotation Xrotation
						JOINT relbow
						{
							OFFSET -0.260127 -0.014369 -0.031269
							CHANNELS 3 Zrotation Yrotation Xrotation
							JOINT rwrist
							{
								OFFSET -0.269108 0.006794 -0.006027
								CHANNELS 3 Zrotation Yrotation Xrotation
								End Site
								{
									OFFSET 0.000000 0.000000 0.000000
								}
							}
						}
					}
				}
			}
		}
	}
}
MOTION
Frames: 17
Frame Time: 0.033333
-0.139164 0.185046 0.999282 -88.978690 -2.378999 92.302718 1.693752 -1.970935 -12.468863 -8.183002 -9.076740 23.459902 1.184348 4.319770 -15.542996 0.000000 -0.000000 0.000000 -2.982408 -2.254416 -15.700191 1.493160 -0.087063 20.817405 2.433149 -9.073101 -9.451840 0.000000 -0.000000 0.000000 2.287240 0.723527 13.795636 4.031401 -1.549923 -0.163582 0.097783 -2.756479 2.952434 -1.972883 0.129622 6.931718 -7.788556 0.322623 11.319741 -24.853711 11.939349 1.009724 -53.669788 -0.895252 8.098364 12.571596 -53.682186 12.445630 -0.063938 -4.753093 -15.746443 20.901691 -4.613209 -6.315267 25.605422 17.306432 -15.495653 -57.019292 22.728068 -69.415418 6.872641 11.096596 -41.708778 
-0.128278 0.180677 0.998514 -91.312730 -2.511175 92.357739 2.000442 -2.080308 -12.355079 -7.369235 -7.083123 25.852008 2.258112 5.312860 -15.203146 0.000000 -0.000000 0.000000 -3.491578 -2.015685 -17.169000 1.703850 0.068810 21.562695 2.442577 -7.618908 -8.736699 0.000000 -0.000000 0.000000 2.526645 0.446047 15.119740 4.321176 -1.623704 0.496518 0.228608 -2.162398 2.795244 -2.853945 1.667384 6.203645 -8.057552 1.068578 11.714889 -25.339689 11.070085 1.158177 -53.687007 0.220482 7.881276 14.509305 -55.523640 10.389014 -0.882735 -4.939487 -17.851750 22.232584 -2.881836 -6.049856 25.056429 18.418838 -13.705386 -65.400333 28.755967 -68.687382 11.494203 12.146710 -34.342123 
-0.117044 0.175626 0.997416 -93.915036 -2.632604 92.841573 2.248882 -2.062360 -12.500823 -6.700701 -5.160704 28.661877 3.032366 5.840991 -14.023893 0.000000 -0.000000 0.000000 -3.904584 -1.773794 -19.626201 1.910250 0.273513 22.934733 2.602237 -6.178177 -8.222714 0.000000 -0.000000 0.000000 2.534066 0.633407 15.951744 4.678060 -1.563361 0.972484 0.297760 -1.222035 2.742075 -3.394912 2.818853 5.746166 -8.283269 1.328842 12.202230 -25.439879 9.484232 1.255267 -53.592418 1.018793 7.983954 14.541027 -56.224865 9.604471 -1.228262 -4.844430 -17.663488 23.521467 -1.550099 -4.942655 25.115489 19.504153 -11.361216 -74.240798 35.641088 -69.126605 13.564522 10.775808 -23.460468 
-0.101007 0.168105 0.995942 -96.604133 -2.224292 93.250376 3.212015 -1.985973 -12.633936 -7.136780 -4.685526 32.766511 0.872878 3.949056 -14.413607 0.000000 -0.000000 0.000000 -4.231494 -0.427257 -21.841515 2.031941 -0.265730 23.466660 3.284858 -4.277317 -6.539421 0.000000 -0.000000 0.000000 3.255729 0.167393 17.462835 4.668569 -1.095599 1.679580 0.348982 -0.805473 2.435051 -3.446082 4.696675 4.033377 -9.385204 1.952707 14.037057 -24.999263 7.815466 1.125709 -53.977243 0.736184 8.539453 14.298170 -56.069481 7.915361 -5.927781 -6.203466 -14.496085 23.879545 0.812993 -4.051770 27.498865 21.534330 -5.173432 -82.082224 44.152641 -67.371725 11.985377 8.205671 -10.174187 
-0.090616 0.163705 0.994655 -97.889028 -2.272788 93.648867 3.482766 -1.965438 -12.605531 -8.108999 -5.368643 34.519112 0.523181 3.170853 -14.542545 0.000000 -0.000000 0.000000 -4.797094 -0.018042 -23.321252 2.504780 0.087030 23.828869 3.692051 -3.458732 -5.635288 0.000000 -0.000000 0.000000 3.211086 -0.019861 18.851048 4.487048 -0.672481 1.405595 0.480598 -0.726383 2.132743 -3.472834 5.543157 3.137660 -9.504004 2.267730 14.264938 -24.870755 6.733997 1.241212 -53.681437 0.190493 8.815394 12.733556 -56.168348 9.066593 -4.232165 -6.438481 -13.052328 24.042918 2.213211 -3.333757 29.527174 22.743092 -2.016541 -82.191874 50.102521 -63.064012 10.440643 7.684926 -2.792525 
-0.076051 0.157276 0.992074 -98.775298 -2.134143 94.185803 4.062905 -2.267365 -12.451226 -9.050670 -6.209862 35.983744 0.055579 2.873351 -14.638388 0.000000 -0.000000 0.000000 -5.158476 -0.176614 -25.392338 2.679164 -0.508896 24.283869 4.002647 -2.449300 -4.631372 0.000000 -0.000000 0.000000 3.282629 -0.274308 20.148128 4.090556 -0.433179 1.331833 0.739028 -0.502678 1.652498 -3.753297 5.861312 3.063545 -8.642859 2.607365 13.763578 -24.686350 3.788740 2.193896 -53.568431 -0.449478 9.925183 13.663829 -56.256440 8.093920 1.280811 -6.234959 -12.918466 24.018061 6.009483 -1.135465 31.784514 23.384140 1.515395 -72.473483 55.311135 -50.572644 4.745723 8.867200 4.272778 
-0.060501 0.150938 0.989090 -99.366016 -1.669325 94.944943 4.828286 -1.802110 -12.113181 -9.275108 -7.552411 35.618362 -0.395628 3.027826 -13.369905 0.000000 -0.000000 0.000000 -5.003891 0.180013 -27.232061 2.659460 -0.510476 23.825478 3.839050 -2.362274 -3.347311 0.000000 -0.000000 0.000000 3.256447 -0.821285 21.262335 3.592950 0.306103 1.789611 1.092343 -0.013789 0.883269 -3.913897 5.643733 2.463773 -7.799709 2.738665 13.384088 -25.452351 0.550396 3.189854 -52.560007 -1.996275 11.217784 15.286355 -56.131554 5.953643 5.660369 -5.803693 -12.996800 24.982743 10.917539 1.296678 32.091623 24.346601 3.851339 -51.896683 53.977474 -29.902082 0.138592 10.245171 9.163970 
-0.043203 0.144550 0.985414 -100.262663 -0.760333 96.136125 6.040605 -1.531047 -11.288581 -9.064554 -9.201359 32.075079 -2.276884 2.781801 -13.404685 0.000000 -0.000000 0.000000 -4.439144 1.233728 -29.577338 2.518162 0.031356 23.477021 4.115138 -1.856806 -1.737553 0.000000 -0.000000 0.000000 2.998988 -1.269886 22.867945 3.076875 1.637742 1.332319 1.669302 0.924819 -0.594884 -3.966484 5.780848 1.772131 -7.234366 2.074031 14.152213 -26.386105 -2.538447 3.773743 -51.677762 -3.565897 12.792586 17.254709 -55.448209 3.327890 5.327610 -6.154838 -13.093292 26.210522 15.987680 4.133133 30.460867 26.173984 4.645926 -32.162468 45.137732 -11.667839 1.920381 8.764277 10.609596 
-0.024001 0.137632 0.980644 -101.126213 -0.152361 97.471350 6.484152 -1.086327 -11.186491 -8.309669 -9.538689 27.862495 -0.879964 3.247250 -16.132570 0.000000 -0.000000 0.000000 -4.350125 1.554960 -32.138334 2.444325 -0.518709 22.582177 5.594258 -1.287189 0.351183 0.000000 -0.000000 0.000000 2.449075 -1.293839 24.540915 2.250007 2.902266 0.212054 1.974013 1.695964 -1.076518 -3.648057 5.971715 -0.145879 -6.734920 1.933701 15.149946 -26.528878 -5.688070 3.710051 -51.490266 -6.260702 14.147298 18.860594 -53.625369 0.703044 1.664110 -7.164987 -11.523666 26.715351 19.839602 5.138124 30.435428 29.040837 4.937064 -21.830483 33.812402 -6.114766 9.185741 7.095815 8.031248 
0.000553 0.130505 0.975237 -101.754639 0.374499 99.301420 6.567461 -0.651709 -13.242577 -7.125662 -4.525787 24.823233 1.495572 5.578607 -17.990494 0.000000 -0.000000 0.000000 -4.299235 1.385429 -35.302139 1.861475 -2.555706 21.426215 7.863429 -0.071685 1.300014 0.000000 -0.000000 0.000000 1.711618 -0.325115 27.571431 1.034410 3.945443 -1.907145 1.844684 1.903189 -2.344991 -2.846750 6.096643 -2.581564 -5.030280 0.795742 15.646489 -26.142721 -8.997751 2.848139 -52.070881 -9.714313 14.817159 20.120731 -51.701243 -1.755799 -1.395667 -7.339919 -9.755537 26.114511 22.015448 5.614244 34.055706 30.645370 5.003986 -17.837039 25.431015 -10.782966 14.572343 4.480330 -1.519118 
0.018316 0.127687 0.971616 -100.554169 1.243630 100.581055 7.086010 -0.219986 -15.044974 -6.056716 -4.131487 23.014210 2.178907 5.751735 -19.126208 0.000000 -0.000000 0.000000 -3.987393 0.540461 -36.720754 1.602595 -5.447420 20.614392 9.836180 -0.279884 -0.398320 0.000000 -0.000000 0.000000 1.129286 -0.335906 29.432722 0.809030 3.538718 -2.928440 2.189346 1.465025 -3.564285 -2.058069 7.015731 -4.093606 -4.072222 0.388970 16.013315 -26.799037 -10.907474 2.508627 -52.364925 -11.951405 14.502766 22.465884 -50.473583 -5.537247 -0.486646 -7.324823 -9.093246 27.225278 22.751244 6.182407 36.488850 29.736205 6.373010 -18.146586 24.876264 -12.538448 12.167157 5.421881 -1.381650 
0.031080 0.127670 0.968931 -99.041196 2.104746 100.178319 8.084013 -0.091506 -14.593964 -5.673224 -5.405697 21.347058 3.023163 5.399438 -20.348575 0.000000 -0.000000 0.000000 -3.792913 -0.763256 -36.198998 1.149995 -10.697331 21.515226 7.882478 -3.497207 -4.990415 0.000000 -0.000000 0.000000 0.804059 -0.282375 29.599936 0.814120 2.769492 -2.004948 2.227612 1.174051 -2.705978 -1.554028 6.969154 -4.059788 -2.248863 0.400805 14.653110 -28.032306 -14.427632 3.828480 -50.821005 -15.178329 13.500554 25.475596 -48.817068 -10.431142 2.290755 -6.164566 -10.521794 29.588346 23.278307 8.100381 36.895941 27.166770 6.557701 -21.139010 29.891844 -13.027726 8.363051 6.069583 -0.425454 
0.041016 0.129627 0.967379 -97.730562 2.514950 99.834662 9.100364 -0.084236 -14.749686 -5.898559 -5.220980 21.099375 2.262461 4.655388 -20.502690 0.000000 -0.000000 0.000000 -4.074331 -2.460500 -36.131002 -0.641094 -16.626575 23.856283 6.918281 -7.225338 -7.327289 0.000000 -0.000000 0.000000 -0.073241 -0.361603 30.719734 0.686783 1.878081 -2.255408 2.263897 0.542703 -2.652102 -1.051147 7.789784 -4.439517 -0.858498 0.432532 14.413007 -28.407134 -15.893349 4.270525 -50.218105 -17.619764 12.277987 28.028855 -48.183637 -13.631511 6.599171 -5.981659 -10.460203 30.902625 22.044566 8.635633 40.028460 24.564719 8.430132 -24.467775 35.140363 -12.732154 5.509082 6.931628 0.432829 
0.048338 0.133395 0.967275 -96.719078 2.936330 99.492386 10.150234 -0.057009 -15.451370 -6.429480 -5.558907 22.084465 2.247349 4.134596 -19.734234 0.000000 -0.000000 0.000000 -4.576157 -3.496001 -36.326745 -1.659138 -17.357854 27.746406 5.333229 -8.966887 -5.316073 0.000000 -0.000000 0.000000 -0.603494 -0.385384 30.632379 0.838755 1.068220 -1.748968 1.945567 -0.187224 -2.520244 -0.934584 8.386081 -4.143840 0.178613 1.207551 13.798858 -28.861211 -16.285490 4.709480 -49.296372 -19.469350 11.047162 30.730622 -49.185460 -15.477295 6.245203 -4.558644 -11.128963 31.866403 20.219403 8.971938 42.656030 21.733928 10.332137 -27.543828 40.043766 -13.098103 5.249775 7.625359 0.543418 
0.053452 0.138529 0.968216 -95.948882 3.569375 99.132210 11.104420 -0.266448 -15.424544 -6.378388 -6.019984 22.049364 3.231701 3.963217 -19.428502 0.000000 -0.000000 0.000000 -5.503717 -3.417568 -36.299468 -1.866260 -16.352835 31.852014 4.828160 -8.746589 -2.259431 0.000000 -0.000000 0.000000 -0.810529 -1.169623 30.220320 0.843895 0.622200 -1.521723 1.543681 -0.507555 -2.277496 -1.021683 8.876118 -3.959871 0.868049 2.297701 13.619108 -28.959631 -15.033136 4.821147 -49.176299 -20.474582 10.644826 37.208965 -53.101799 -20.492254 7.482303 -4.032182 -11.812765 32.086536 17.997906 8.649774 45.078133 18.660916 12.124876 -28.757500 43.406615 -12.921000 5.330519 9.179091 -0.179297 
0.055990 0.145415 0.969007 -96.301692 3.825477 98.850213 11.518689 0.138838 -14.744248 -6.082165 -6.496762 21.308635 3.530522 4.078787 -19.031300 0.000000 -0.000000 0.000000 -6.783407 -3.039636 -35.813739 -1.799385 -14.700962 34.903839 5.615048 -7.355773 -2.041423 0.000000 -0.000000 0.000000 -1.439040 -1.633595 29.257605 0.721091 0.627451 -1.891235 1.271154 -0.719143 -2.110896 -0.734595 9.809209 -3.413292 1.031434 3.421066 14.527970 -29.450581 -12.925382 4.699670 -49.311496 -20.403509 10.419152 45.639308 -57.340076 -25.884215 7.963440 -4.097690 -8.838315 32.352804 15.508705 8.587122 46.670226 15.601567 12.909781 -28.801722 45.472151 -13.652940 6.731049 9.778985 -3.691909 
0.056942 0.154321 0.970372 -96.883251 3.989148 98.459537 12.216609 0.024213 -13.476678 -5.955655 -6.212955 20.091899 3.301412 4.350343 -18.701044 0.000000 -0.000000 0.000000 -7.839004 -2.983037 -34.399956 -2.167775 -13.431710 36.254650 6.574898 -6.955743 -1.577392 0.000000 -0.000000 0.000000 -1.696896 -1.658134 28.047256 0.656334 0.598054 -1.667663 1.038719 -1.115302 -1.914378 -0.633569 10.315275 -3.344242 1.386338 4.085609 14.295322 -29.748720 -10.563287 4.520786 -49.712348 -20.151281 9.878403 56.222522 -60.970656 -33.538904 8.549508 -3.736060 -6.224325 32.796526 12.584544 7.616093 47.347613 12.629045 13.152718 -28.904120 47.325251 -13.772338 7.822176 9.817326 -5.272480 
